<?xml version="1.0" encoding="UTF-8"?>
<svg xmlns="http://www.w3.org/2000/svg" viewBox="0 0 128 128" width="128" height="128">
  <defs>
    <linearGradient id="bg" x1="0" y1="0" x2="1" y2="1">
      <stop offset="0%" stop-color="#3b82f6"/>
      <stop offset="100%" stop-color="#1d4ed8"/>
    </linearGradient>
    <linearGradient id="spark" x1="0" y1="0" x2="1" y2="1">
      <stop offset="0%" stop-color="#fbbf24"/>
      <stop offset="100%" stop-color="#f59e0b"/>
    </linearGradient>
  </defs>
  <!-- Rounded background -->
  <rect width="128" height="128" rx="28" ry="28" fill="url(#bg)"/>
  <!-- Document -->
  <g transform="translate(28 22)">
    <rect x="0" y="0" width="60" height="78" rx="6" ry="6" fill="#ffffff" opacity="0.96"/>
    <!-- Lines -->
    <rect x="10" y="14" width="40" height="5" rx="2.5" fill="#3b82f6" opacity="0.85"/>
    <rect x="10" y="26" width="34" height="4" rx="2" fill="#94a3b8"/>
    <rect x="10" y="36" width="40" height="4" rx="2" fill="#94a3b8"/>
    <rect x="10" y="46" width="36" height="4" rx="2" fill="#94a3b8"/>
    <rect x="10" y="56" width="30" height="4" rx="2" fill="#94a3b8"/>
  </g>
  <!-- Chat bubble overlay (bottom-right) -->
  <g transform="translate(60 60)">
    <path d="M0 8 Q0 0 8 0 H44 Q52 0 52 8 V32 Q52 40 44 40 H22 L12 50 V40 H8 Q0 40 0 32 Z"
          fill="#1e3a8a" stroke="#ffffff" stroke-width="3"/>
    <!-- Sparkle inside chat -->
    <path d="M26 12 L29 22 L39 25 L29 28 L26 38 L23 28 L13 25 L23 22 Z"
          fill="url(#spark)"/>
  </g>
</svg>
